<svg width="28" height="26" viewBox="0 0 28 26" fill="none" xmlns="http://www.w3.org/2000/svg">
<path d="M5.28749 18.5024L4.39966 18.0422C4.23899 18.3522 4.25164 18.7236 4.43304 19.0219C4.61445 19.3203 4.93833 19.5024 5.28749 19.5024V18.5024ZM16.7157 18.5024V19.5024C17.0649 19.5024 17.3887 19.3203 17.5701 19.0219C17.7516 18.7236 17.7642 18.3522 17.6035 18.0422L16.7157 18.5024ZM20.0032 18.5024H21.0032C21.0032 17.9501 20.5555 17.5024 20.0032 17.5024V18.5024ZM3.70048 12.3011L2.70048 12.3011V12.3011H3.70048ZM20.0032 20.5024V21.5024C20.5555 21.5024 21.0032 21.0547 21.0032 20.5024H20.0032ZM8.57778 22.6039L9.44432 23.103L9.44432 23.103L8.57778 22.6039ZM13.4254 22.6039L14.2919 22.1048L14.2919 22.1048L13.4254 22.6039ZM13.4239 23.6048L14.2889 24.1066L14.2889 24.1066L13.4239 23.6048ZM8.57932 23.6048L7.71432 24.1066L7.71432 24.1066L8.57932 23.6048ZM6.70048 12.3011C6.70048 9.92568 8.62615 8 11.0016 8V6C7.52158 6 4.70048 8.82111 4.70048 12.3011H6.70048ZM6.70048 16.8019V12.3011H4.70048V16.8019H6.70048ZM6.17532 18.9626C6.51118 18.3146 6.70048 17.5789 6.70048 16.8019H4.70048C4.70048 17.2511 4.5916 17.6719 4.39966 18.0422L6.17532 18.9626ZM16.7157 17.5024H5.28749V19.5024H16.7157V17.5024ZM15.3027 16.8019C15.3027 17.5789 15.492 18.3146 15.8279 18.9626L17.6035 18.0422C17.4116 17.6719 17.3027 17.2511 17.3027 16.8019H15.3027ZM15.3027 12.3011V16.8019H17.3027V12.3011H15.3027ZM11.0016 8C13.377 8 15.3027 9.92568 15.3027 12.3011H17.3027C17.3027 8.82111 14.4816 6 11.0016 6V8ZM20.0032 17.5024C19.6163 17.5024 19.3027 17.1888 19.3027 16.8019H17.3027C17.3027 18.2933 18.5118 19.5024 20.0032 19.5024V17.5024ZM19.3027 16.8019V12.3011H17.3027V16.8019H19.3027ZM19.3027 12.3011C19.3027 7.71654 15.5862 4 11.0016 4V6C14.4816 6 17.3027 8.82111 17.3027 12.3011H19.3027ZM11.0016 4C6.41701 4 2.70048 7.71654 2.70048 12.3011L4.70048 12.3011C4.70048 8.82111 7.52158 6 11.0016 6V4ZM2.70048 12.3011V16.8019H4.70048V12.3011H2.70048ZM2.70048 16.8019C2.70048 17.1888 2.38686 17.5024 2 17.5024V19.5024C3.49143 19.5024 4.70048 18.2933 4.70048 16.8019H2.70048ZM2 17.5024C0.895431 17.5024 0 18.3978 0 19.5024H2V17.5024ZM0 19.5024C0 20.607 0.895431 21.5024 2 21.5024V19.5024H0ZM2 21.5024H20.0032V19.5024H2V21.5024ZM21.0032 20.5024V18.5024H19.0032V20.5024H21.0032ZM9.44432 21.103C8.72906 21.103 8.06824 21.485 7.71125 22.1048L9.44432 23.103L9.44432 23.103V21.103ZM12.5589 21.103H9.44432V23.103H12.5589V21.103ZM14.2919 22.1048C13.9349 21.485 13.2741 21.103 12.5589 21.103V23.103L12.5589 23.103L14.2919 22.1048ZM14.2889 24.1066C14.6478 23.4879 14.6489 22.7246 14.2919 22.1048L12.5589 23.103L12.5589 23.103L14.2889 24.1066ZM11.0016 26C12.3565 26 13.609 25.2786 14.2889 24.1066L12.5589 23.103C12.2368 23.6583 11.6435 24 11.0016 24V26ZM7.71432 24.1066C8.39419 25.2786 9.64665 26 11.0016 26V24C10.3597 24 9.76639 23.6583 9.44432 23.103L7.71432 24.1066ZM7.71125 22.1048C7.35425 22.7246 7.35542 23.4879 7.71432 24.1066L9.44432 23.103L9.44432 23.103L7.71125 22.1048Z" fill="#B1B4CE"/>
<circle cx="24.5" cy="3.5" r="3.5" fill="#F98E73"/>
</svg>
